<?xml version="1.0" standalone="no"?>
<!DOCTYPE svg PUBLIC "-//W3C//DTD SVG 20010904//EN"
 "http://www.w3.org/TR/2001/REC-SVG-20010904/DTD/svg10.dtd">
<svg version="1.0" xmlns="http://www.w3.org/2000/svg"
 width="300.000000pt" height="300.000000pt" viewBox="0 0 300.000000 300.000000"
 preserveAspectRatio="xMidYMid meet">
<metadata>
Created by potrace 1.14, written by Peter Selinger 2001-2017
</metadata>
<g transform="translate(0.000000,300.000000) scale(0.100000,-0.100000)"
fill="#000000" stroke="none">
<path d="M1527 2716 c-15 -12 -17 -20 -9 -48 5 -18 7 -38 5 -44 -2 -6 3 -17
12 -24 13 -11 19 -10 36 5 12 12 17 25 13 34 -4 9 -6 25 -6 35 1 22 -15 56
-26 56 -4 0 -15 -7 -25 -14z"/>
<path d="M1820 2700 c-71 -57 -100 -92 -98 -121 2 -25 6 -29 33 -29 32 0 36 3
108 92 l38 46 -23 16 c-28 20 -27 20 -58 -4z"/>
<path d="M1303 2691 c-6 -3 -13 -16 -17 -28 -9 -29 51 -160 66 -145 6 6 17 8
24 5 18 -7 18 6 -3 53 -9 22 -19 57 -22 78 -6 38 -25 53 -48 37z"/>
<path d="M1115 2550 c-8 -13 13 -80 32 -102 12 -13 54 -27 95 -32 3 -1 10 -5
14 -9 5 -4 16 2 25 15 17 22 16 23 -18 55 -19 18 -41 33 -48 33 -8 0 -18 6
-22 14 -9 14 -46 36 -62 36 -5 0 -13 -5 -16 -10z"/>
<path d="M1394 2456 c-17 -17 -36 -40 -41 -51 -16 -32 -9 -121 10 -143 9 -10
17 -24 17 -30 0 -12 196 -212 208 -212 4 0 16 12 27 27 11 15 34 41 50 58 41
43 124 152 140 181 18 35 11 161 -10 184 -9 10 -24 17 -33 14 -10 -2 -30 -7
-47 -11 -37 -10 -125 -62 -125 -74 0 -5 -9 -9 -20 -9 -14 0 -20 7 -20 21 0 32
-17 56 -47 64 -57 16 -76 13 -109 -19z"/>
<path d="M1887 2466 c-7 -18 50 -76 75 -76 16 0 39 30 44 57 1 7 -14 15 -34
18 -21 4 -47 8 -58 11 -13 2 -24 -2 -27 -10z"/>
<path d="M1145 2364 c-16 -7 -46 -13 -66 -14 -41 0 -55 -18 -35 -46 9 -12 19
-15 32 -9 10 4 22 7 27 7 7 -2 67 27 96 47 26 17 -20 30 -54 15z"/>
<path d="M1170 2229 c-30 -16 -59 -30 -65 -32 -5 -2 3 -16 17 -32 l26 -28 37
22 c20 11 45 21 56 21 10 0 19 3 19 7 0 14 -24 73 -30 72 -3 -1 -30 -14 -60
-30z"/>
<path d="M1905 2231 c-7 -13 27 -51 63 -70 27 -14 27 -15 35 20 5 17 2 31 -7
38 -21 18 -82 25 -91 12z"/>
<path d="M1270 2099 c-19 -23 -43 -49 -53 -58 -18 -19 -14 -51 7 -51 17 0 76
39 82 54 3 8 4 32 2 55 l-3 41 -35 -41z"/>
<path d="M1857 2052 c-20 -22 -15 -59 10 -77 21 -15 34 -11 51 15 10 16 8 24
-16 50 -27 29 -29 30 -45 12z"/>
<path d="M1433 2018 c-20 -26 -54 -107 -60 -141 -5 -31 -3 -35 26 -45 18 -6
33 -7 36 -2 6 10 35 165 35 188 0 6 -6 12 -14 12 -7 0 -18 -6 -23 -12z"/>
<path d="M1714 1965 c3 -9 6 -21 6 -26 0 -18 78 -89 98 -89 11 0 27 -3 35 -6
11 -4 13 1 10 21 -3 15 -21 36 -45 53 -22 15 -48 34 -57 42 -25 22 -55 26 -47
5z"/>
<path d="M1597 1943 c-55 -90 -68 -156 -32 -160 11 -1 29 -3 40 -5 26 -4 31
30 14 102 -7 30 -12 58 -11 63 1 4 0 7 -2 7 -3 0 -7 -3 -9 -7z"/>
<path d="M1832 1724 c-12 -19 -22 -40 -22 -47 0 -7 -7 -22 -15 -33 -8 -10 -15
-28 -15 -40 0 -11 -3 -24 -7 -28 -4 -3 -8 -23 -9 -44 -1 -20 -4 -46 -7 -57 -3
-11 -6 -25 -6 -31 -1 -5 -9 -19 -20 -30 -19 -21 -26 -21 -126 -8 -27 4 -90 10
-140 13 l-90 6 -13 45 c-21 67 -123 270 -137 270 -7 0 -21 -12 -31 -26 -10
-15 -26 -34 -35 -43 -8 -9 -26 -32 -39 -51 -13 -19 -35 -46 -49 -60 -15 -14
-40 -43 -56 -65 -16 -22 -43 -53 -60 -69 -53 -50 -120 -116 -135 -134 -58 -69
-90 -112 -84 -112 4 0 -2 -10 -13 -22 -38 -42 -51 -82 -58 -188 -15 -201 -11
-232 38 -311 27 -43 134 -149 152 -149 7 0 18 -7 25 -15 6 -8 58 -37 113 -66
56 -28 107 -55 114 -61 6 -5 17 -8 25 -6 7 1 39 -10 72 -26 32 -15 68 -30 80
-33 32 -7 266 -8 306 0 19 3 51 8 70 11 152 21 191 30 260 57 43 16 87 31 97
34 37 7 139 62 169 90 57 55 123 172 149 265 19 65 19 170 0 233 -9 30 -18 64
-20 76 -2 12 -18 58 -36 102 -24 61 -44 92 -82 130 -28 27 -55 49 -59 49 -4 0
-8 9 -8 20 0 11 -16 54 -35 94 -19 41 -35 80 -35 87 0 15 -47 87 -72 109 -31
28 -53 45 -94 71 l-40 27 -22 -34z"/>
</g>
</svg>
