<svg width="204" height="67" xmlns="http://www.w3.org/2000/svg" preserveAspectRatio="xMidYMid meet">
 <metadata>Created by potrace 1.10, written by Peter Selinger 2001-2011</metadata>

 <g>
  <title>background</title>
  <rect fill="none" id="canvas_background" height="69" width="206" y="-1" x="-1"/>
 </g>
 <g>
  <title>Layer 1</title>
  <g id="svg_1" fill="#000000" transform="translate(0,388) scale(0.10000000149011612,-0.10000000149011612) ">
   <path id="svg_2" d="m479,3810c-13,-44 -26,-58 -55,-63c-10,-1 -23,-5 -29,-9c-5,-3 -37,-12 -70,-19c-37,-8 -52,-14 -38,-17c12,-2 54,6 93,17c38,11 70,19 70,18c-1,-12 -51,-132 -67,-164c-24,-44 -69,-86 -87,-80c-6,2 -10,25 -9,53l2,49l-12,-35c-17,-49 -25,-60 -48,-60c-18,0 -19,2 -5,29c9,16 29,43 46,60c18,17 26,31 18,31c-18,0 -28,-8 -96,-69c-59,-53 -117,-87 -126,-72c-3,4 0,27 6,51c9,36 17,45 49,59c22,9 39,19 39,24c0,23 -83,-15 -104,-48c-23,-35 -31,-99 -14,-111c32,-25 46,-22 94,23c33,32 49,42 52,32c11,-33 23,-39 52,-24c25,13 30,13 40,0c7,-8 18,-15 25,-15c13,0 69,59 92,96c10,17 12,15 12,-18c1,-20 4,-43 7,-52c8,-20 53,-21 81,-1c19,13 22,13 27,-1c9,-23 23,-9 30,30c4,20 18,44 33,56c32,25 47,26 38,3c-13,-33 -16,-78 -6,-92c8,-13 15,-12 50,1c34,14 42,14 52,2c38,-46 165,43 176,124c4,32 2,42 -9,42c-34,0 -52,-51 -22,-68c12,-7 7,-16 -30,-50c-45,-42 -90,-55 -99,-29c-5,15 11,78 24,92c5,5 9,-2 9,-18c0,-15 -4,-27 -10,-27c-5,0 -10,-5 -10,-12c0,-6 9,-3 20,7c23,21 26,48 7,63c-18,15 -46,-9 -62,-55c-21,-62 -93,-83 -80,-24c20,90 20,90 -16,71c-10,-6 -19,-8 -19,-5c0,8 33,59 43,66c5,3 8,8 7,10c-1,2 5,22 14,44c25,59 30,93 16,110c-7,8 -16,15 -21,15c-19,0 -58,-80 -93,-191c-30,-95 -43,-120 -67,-138c-49,-37 -64,-26 -61,44c1,33 7,71 12,85c4,14 11,41 14,61c6,33 11,38 51,49c25,7 48,17 51,21c8,13 -9,11 -50,-6c-41,-17 -44,-13 -17,32c18,29 18,43 0,43c-5,0 -14,-18 -20,-40zm201,5c0,-23 -82,-191 -87,-177c-3,7 0,19 6,26c6,7 13,31 16,54c9,69 37,128 56,116c5,-3 9,-11 9,-19zm210,-195c0,-21 -15,-27 -25,-10c-7,12 2,30 16,30c5,0 9,-9 9,-20z"/>
   <path id="svg_3" d="m1105,3719c-4,-6 -13,-8 -21,-5c-9,3 -14,-2 -14,-14c0,-11 6,-20 14,-20c19,0 48,29 41,41c-8,12 -12,11 -20,-2z"/>
   <path id="svg_4" d="m1399,3643c-26,-28 -44,-61 -41,-75c2,-10 -47,-42 -54,-36c-2,3 0,18 6,34c11,28 5,82 -7,70c-17,-17 -39,-104 -32,-124c8,-22 39,-31 39,-12c0,5 9,14 21,21c17,9 24,7 40,-10c11,-12 23,-21 27,-21c7,0 92,79 92,86c0,2 -15,-5 -32,-16c-18,-11 -43,-20 -55,-20c-18,0 -21,5 -18,31c3,17 12,43 22,58c14,22 18,23 21,9c2,-10 -6,-31 -18,-48c-12,-16 -17,-30 -12,-30c5,0 17,15 27,34c14,25 16,40 9,56c-9,21 -10,21 -35,-7z"/>
   <path id="svg_5" d="m1064,3611c-6,-30 -29,-55 -76,-85c-33,-22 -44,-6 -18,27c17,21 18,30 9,54c-6,15 -13,22 -16,16c-3,-7 -16,-13 -29,-13c-13,0 -24,-4 -24,-10c0,-5 7,-7 15,-4c18,7 19,3 4,-30c-6,-13 -9,-36 -5,-50c6,-23 10,-25 34,-20c15,4 41,18 59,31c31,24 31,24 38,4c10,-34 41,-24 91,29c53,57 72,64 49,19c-17,-32 -17,-79 0,-80c6,0 15,15 20,34c6,18 24,46 40,61l30,27l-29,-18l-29,-17l5,27c3,15 3,27 0,27c-8,0 -62,-43 -101,-79c-18,-17 -36,-29 -41,-26c-4,2 -5,27 -2,55c5,55 -14,72 -24,21z"/>
   <path id="svg_6" d="m1706,3628c-30,-98 -3,-145 57,-98l26,21l-4,-21c-2,-12 -6,-29 -9,-38c-2,-9 -7,-29 -10,-44c-4,-17 -29,-43 -76,-78c-38,-29 -70,-58 -70,-66c0,-22 29,-74 41,-74c14,0 76,67 94,100c7,14 16,42 20,62c4,22 20,49 42,69c19,19 42,47 50,63l15,30l14,-32c7,-18 16,-32 20,-32c3,0 19,15 35,33l29,32l0,-31c0,-18 6,-34 14,-37c10,-4 15,8 18,50c5,62 0,103 -13,103c-5,0 -9,-14 -9,-30c0,-29 -39,-80 -61,-80c-4,0 -5,25 -2,55c6,59 -11,79 -23,28c-8,-32 -60,-106 -100,-143l-27,-25l8,30c4,17 11,48 15,70c3,22 12,51 19,63c7,13 10,26 7,30c-7,7 -7,6 -28,-40c-17,-36 -63,-77 -74,-65c-3,3 -1,14 4,24c11,20 5,70 -9,79c-5,3 -11,-1 -13,-8zm20,-276c-41,-59 -74,-88 -87,-75c-7,7 -8,17 -1,28c10,19 105,95 111,89c2,-2 -8,-21 -23,-42z"/>
  </g>
 </g>
</svg>