<?xml version="1.0" standalone="no"?>
<!DOCTYPE svg PUBLIC "-//W3C//DTD SVG 20010904//EN"
 "http://www.w3.org/TR/2001/REC-SVG-20010904/DTD/svg10.dtd">
<svg version="1.0" xmlns="http://www.w3.org/2000/svg"
 width="300.000000pt" height="388.000000pt" viewBox="0 0 300.000000 388.000000"
 preserveAspectRatio="xMidYMid meet">
<metadata>
Created by potrace 1.10, written by Peter Selinger 2001-2011
</metadata>
<g transform="translate(0.000000,388.000000) scale(0.100000,-0.100000)"
fill="#000000" stroke="none">
<path d="M949 2230 c-13 -44 -26 -58 -55 -63 -10 -1 -23 -5 -29 -9 -5 -3 -37
-12 -70 -19 -37 -8 -52 -14 -38 -17 12 -2 54 6 93 17 38 11 70 19 70 18 -1
-12 -51 -132 -67 -164 -24 -44 -69 -86 -87 -80 -6 2 -10 25 -9 53 l2 49 -12
-35 c-17 -49 -25 -60 -48 -60 -18 0 -19 2 -5 29 9 16 29 43 46 60 18 17 26 31
18 31 -18 0 -28 -8 -96 -69 -59 -53 -117 -87 -126 -72 -3 4 0 27 6 51 9 36 17
45 49 59 22 9 39 19 39 24 0 23 -83 -15 -104 -48 -23 -35 -31 -99 -14 -111 32
-25 46 -22 94 23 33 32 49 42 52 32 11 -33 23 -39 52 -24 25 13 30 13 40 0 7
-8 18 -15 25 -15 13 0 69 59 92 96 10 17 12 15 12 -18 1 -20 4 -43 7 -52 8
-20 53 -21 81 -1 19 13 22 13 27 -1 9 -23 23 -9 30 30 4 20 18 44 33 56 32 25
47 26 38 3 -13 -33 -16 -78 -6 -92 8 -13 15 -12 50 1 34 14 42 14 52 2 38 -46
165 43 176 124 4 32 2 42 -9 42 -34 0 -52 -51 -22 -68 12 -7 7 -16 -30 -50
-45 -42 -90 -55 -99 -29 -5 15 11 78 24 92 5 5 9 -2 9 -18 0 -15 -4 -27 -10
-27 -5 0 -10 -5 -10 -12 0 -6 9 -3 20 7 23 21 26 48 7 63 -18 15 -46 -9 -62
-55 -21 -62 -93 -83 -80 -24 20 90 20 90 -16 71 -10 -6 -19 -8 -19 -5 0 8 33
59 43 66 5 3 8 8 7 10 -1 2 5 22 14 44 25 59 30 93 16 110 -7 8 -16 15 -21 15
-19 0 -58 -80 -93 -191 -30 -95 -43 -120 -67 -138 -49 -37 -64 -26 -61 44 1
33 7 71 12 85 4 14 11 41 14 61 6 33 11 38 51 49 25 7 48 17 51 21 8 13 -9 11
-50 -6 -41 -17 -44 -13 -17 32 18 29 18 43 0 43 -5 0 -14 -18 -20 -40z m201 5
c0 -23 -82 -191 -87 -177 -3 7 0 19 6 26 6 7 13 31 16 54 9 69 37 128 56 116
5 -3 9 -11 9 -19z m210 -195 c0 -21 -15 -27 -25 -10 -7 12 2 30 16 30 5 0 9
-9 9 -20z"/>
<path d="M1575 2139 c-4 -6 -13 -8 -21 -5 -9 3 -14 -2 -14 -14 0 -11 6 -20 14
-20 19 0 48 29 41 41 -8 12 -12 11 -20 -2z"/>
<path d="M1869 2063 c-26 -28 -44 -61 -41 -75 2 -10 -47 -42 -54 -36 -2 3 0
18 6 34 11 28 5 82 -7 70 -17 -17 -39 -104 -32 -124 8 -22 39 -31 39 -12 0 5
9 14 21 21 17 9 24 7 40 -10 11 -12 23 -21 27 -21 7 0 92 79 92 86 0 2 -15 -5
-32 -16 -18 -11 -43 -20 -55 -20 -18 0 -21 5 -18 31 3 17 12 43 22 58 14 22
18 23 21 9 2 -10 -6 -31 -18 -48 -12 -16 -17 -30 -12 -30 5 0 17 15 27 34 14
25 16 40 9 56 -9 21 -10 21 -35 -7z"/>
<path d="M1534 2031 c-6 -30 -29 -55 -76 -85 -33 -22 -44 -6 -18 27 17 21 18
30 9 54 -6 15 -13 22 -16 16 -3 -7 -16 -13 -29 -13 -13 0 -24 -4 -24 -10 0 -5
7 -7 15 -4 18 7 19 3 4 -30 -6 -13 -9 -36 -5 -50 6 -23 10 -25 34 -20 15 4 41
18 59 31 31 24 31 24 38 4 10 -34 41 -24 91 29 53 57 72 64 49 19 -17 -32 -17
-79 0 -80 6 0 15 15 20 34 6 18 24 46 40 61 l30 27 -29 -18 -29 -17 5 27 c3
15 3 27 0 27 -8 0 -62 -43 -101 -79 -18 -17 -36 -29 -41 -26 -4 2 -5 27 -2 55
5 55 -14 72 -24 21z"/>
<path d="M2176 2048 c-30 -98 -3 -145 57 -98 l26 21 -4 -21 c-2 -12 -6 -29 -9
-38 -2 -9 -7 -29 -10 -44 -4 -17 -29 -43 -76 -78 -38 -29 -70 -58 -70 -66 0
-22 29 -74 41 -74 14 0 76 67 94 100 7 14 16 42 20 62 4 22 20 49 42 69 19 19
42 47 50 63 l15 30 14 -32 c7 -18 16 -32 20 -32 3 0 19 15 35 33 l29 32 0 -31
c0 -18 6 -34 14 -37 10 -4 15 8 18 50 5 62 0 103 -13 103 -5 0 -9 -14 -9 -30
0 -29 -39 -80 -61 -80 -4 0 -5 25 -2 55 6 59 -11 79 -23 28 -8 -32 -60 -106
-100 -143 l-27 -25 8 30 c4 17 11 48 15 70 3 22 12 51 19 63 7 13 10 26 7 30
-7 7 -7 6 -28 -40 -17 -36 -63 -77 -74 -65 -3 3 -1 14 4 24 11 20 5 70 -9 79
-5 3 -11 -1 -13 -8z m20 -276 c-41 -59 -74 -88 -87 -75 -7 7 -8 17 -1 28 10
19 105 95 111 89 2 -2 -8 -21 -23 -42z"/>
</g>
</svg>
